<?xml version="1.0" encoding="utf-8"?>
<!-- Svg Vector Icons : http://www.onlinewebfonts.com/icon -->
<!DOCTYPE svg PUBLIC "-//W3C//DTD SVG 1.1//EN" "http://www.w3.org/Graphics/SVG/1.1/DTD/svg11.dtd">
<svg version="1.1" xmlns="http://www.w3.org/2000/svg" xmlns:xlink="http://www.w3.org/1999/xlink" x="0px" y="0px" viewBox="0 0 256 256" enable-background="new 0 0 256 256" xml:space="preserve">
<metadata> Svg Vector Icons : http://www.onlinewebfonts.com/icon </metadata>
<g><g><path fill="#000000" d="M81.7,114.8V87.5h100.1c10.6,0,19.8,6,24.4,14.8c3.4-4.9,5.5-10.9,5.5-17.3l0,0c0-16.6-13.5-30.1-30.1-30.1H81.7V27.5c0-4-4.6-6.4-7.8-4.1L12.1,67.1c-2.8,2-2.8,6.1,0,8.1l61.8,43.6C77.2,121.1,81.7,118.8,81.7,114.8L81.7,114.8z"/><path fill="#000000" d="M243.9,180.8l-61.8-43.6c-3.3-2.3-7.8,0-7.8,4.1v27.3H74.2c-10.6,0-19.8-6-24.4-14.8c-3.5,4.9-5.5,10.9-5.5,17.3l0,0c0,16.6,13.5,30.1,30.1,30.1h99.9v27.4c0,4,4.6,6.4,7.8,4.1l61.8-43.6C246.7,186.9,246.7,182.8,243.9,180.8L243.9,180.8z"/></g></g>
</svg>